<?xml version="1.0" encoding="UTF-8"?>
<svg version="1.1" xmlns="http://www.w3.org/2000/svg" width="512" height="512">
<path d="M0 0 C4.12279192 0.00914431 8.24551904 -0.00496515 12.36829758 -0.01591969 C20.42114874 -0.03361055 28.47384991 -0.02990731 36.5267067 -0.01826912 C43.07743169 -0.00919766 49.62811496 -0.00802676 56.17884445 -0.01236439 C57.11483144 -0.01297732 58.05081843 -0.01359025 59.01516867 -0.01422176 C60.9172179 -0.01550079 62.81926713 -0.01679765 64.72131634 -0.01811212 C82.51389757 -0.02949029 100.30639608 -0.01644775 118.09896374 0.00508934 C133.3317681 0.0229578 148.56445049 0.01985291 163.79725266 0.0014143 C181.53063333 -0.02004141 199.26394168 -0.02839191 216.99733353 -0.01613665 C218.89198429 -0.01486259 220.78663507 -0.0136051 222.68128586 -0.01236439 C223.61324075 -0.01174729 224.54519565 -0.01113018 225.5053916 -0.01049438 C232.04044057 -0.00705555 238.57544327 -0.01283799 245.11048508 -0.0222826 C253.08571738 -0.03355638 261.06079241 -0.03035036 269.03600693 -0.00915962 C273.09708423 0.00127898 277.15790031 0.00559719 281.21897507 -0.00775623 C315.20309151 -0.10993334 342.84879771 5.5528535 368.02772141 30.05024242 C391.7657425 55.03570204 396.06230555 83.83956048 395.95296383 117.09283352 C395.94381952 121.21562544 395.95792898 125.33835256 395.96888351 129.4611311 C395.98657438 137.51398226 395.98287114 145.56668343 395.97123295 153.61954021 C395.96216149 160.17026521 395.96099059 166.72094848 395.96532822 173.27167797 C395.96594115 174.20766496 395.96655408 175.14365195 395.96718559 176.10800219 C395.96846462 178.01005142 395.96976148 179.91210065 395.97107595 181.81414986 C395.98245411 199.60673109 395.96941158 217.39922959 395.94787449 235.19179726 C395.93000603 250.42460162 395.93311092 265.65728401 395.95154953 280.89008617 C395.97300524 298.62346685 395.98135574 316.3567752 395.96910048 334.09016705 C395.96782642 335.98481781 395.96656893 337.87946859 395.96532822 339.77411938 C395.96471111 340.70607427 395.96409401 341.63802917 395.96345821 342.59822512 C395.96001938 349.13327409 395.96580182 355.66827679 395.97524643 362.2033186 C395.98652021 370.17855089 395.98331419 378.15362593 395.96212345 386.12884045 C395.95168485 390.18991775 395.94736664 394.25073383 395.96072006 398.31180859 C396.06289717 432.29592503 390.40011032 459.94163123 365.90272141 485.12055492 C340.91726179 508.85857602 312.11340335 513.15513907 278.86013031 513.04579735 C274.73733839 513.03665304 270.61461127 513.0507625 266.49183273 513.06171703 C258.43898157 513.0794079 250.3862804 513.07570466 242.33342361 513.06406647 C235.78269862 513.05499501 229.23201535 513.05382411 222.68128586 513.05816174 C221.74529887 513.05877467 220.80931188 513.0593876 219.84496164 513.06001911 C217.94291241 513.06129814 216.04086318 513.062595 214.13881397 513.06390947 C196.34623274 513.07528763 178.55373423 513.0622451 160.76116657 513.04070801 C145.52836221 513.02283955 130.29567982 513.02594444 115.06287766 513.04438305 C97.32949698 513.06583876 79.59618863 513.07418926 61.86279678 513.06193399 C59.96814602 513.06065994 58.07349524 513.05940245 56.17884445 513.05816174 C55.24688956 513.05754463 54.31493466 513.05692753 53.35473871 513.05629173 C46.81968974 513.0528529 40.28468704 513.05863534 33.74964523 513.06807995 C25.77441293 513.07935373 17.7993379 513.07614771 9.82412338 513.05495697 C5.76304608 513.04451837 1.70223 513.04020016 -2.35884476 513.05355358 C-36.3429612 513.15573069 -63.9886674 507.49294384 -89.16759109 482.99555492 C-112.90561219 458.01009531 -117.20217524 429.20623687 -117.09283352 395.95296383 C-117.08368921 391.83017191 -117.09779867 387.70744478 -117.1087532 383.58466625 C-117.12644407 375.53181509 -117.12274083 367.47911392 -117.11110264 359.42625713 C-117.10203118 352.87553214 -117.10086028 346.32484887 -117.10519791 339.77411938 C-117.10581084 338.83813239 -117.10642377 337.9021454 -117.10705528 336.93779516 C-117.10833431 335.03574593 -117.10963117 333.1336967 -117.11094564 331.23164749 C-117.1223238 313.43906626 -117.10928127 295.64656775 -117.08774418 277.85400009 C-117.06987572 262.62119573 -117.07298061 247.38851334 -117.09141922 232.15571117 C-117.11287493 214.4223305 -117.12122543 196.68902215 -117.10897017 178.9556303 C-117.10769611 177.06097954 -117.10643862 175.16632876 -117.10519791 173.27167797 C-117.10427225 171.87374563 -117.10427225 171.87374563 -117.1033279 170.44757223 C-117.09988907 163.91252326 -117.10567151 157.37752056 -117.11511612 150.84247875 C-117.1263899 142.86724645 -117.12318388 134.89217142 -117.10199314 126.9169569 C-117.09155454 122.8558796 -117.08723633 118.79506352 -117.10058975 114.73398876 C-117.20276686 80.74987232 -111.53998001 53.10416612 -87.04259109 27.92524242 C-62.05713148 4.18722132 -33.25327304 -0.10934172 0 0 Z M26.40662766 190.08930492 C23.3121731 193.89927565 21.23055568 197.9746716 19.43006516 202.52289867 C19.06526047 203.42137524 18.70045578 204.3198518 18.32459641 205.24555492 C15.80294704 214.48426157 15.88248169 226.82085995 20.17225266 235.46039867 C31.224297 253.58300555 49.3576734 260.69012453 68.52357101 267.89716625 C86.64149485 274.81954644 86.64149485 274.81954644 91.43006516 282.52289867 C93.43785726 288.54627499 93.47959969 295.26236276 90.80506516 301.02289867 C84.39047001 307.77510409 77.53448203 309.50892444 68.49256516 309.83539867 C59.26603341 309.59259521 51.51180343 306.40156172 44.43006516 300.52289867 C42.83697843 298.77880847 41.36573371 296.97344189 39.88709641 295.13227367 C36.58574567 291.4857415 32.65658649 289.85143117 27.93006516 288.58539867 C22.64878903 288.49109017 19.06616696 290.14512874 15.05506516 293.52289867 C11.34759015 298.08594483 11.87960201 303.94181401 12.43006516 309.52289867 C16.13706594 321.32889031 26.81027668 328.67802449 37.24256516 334.27289867 C54.61824672 342.39801991 73.2503203 343.42316289 91.55506516 337.83539867 C105.74637322 332.6160451 117.81231552 325.07152841 124.99256516 311.33539867 C130.31430568 299.38832125 131.12148671 288.18404888 126.80506516 275.62446117 C118.09242125 255.97150873 95.11630146 247.59853775 76.4693718 240.32709789 C71.23480213 238.28036835 66.17238617 236.08164135 61.20740891 233.43305492 C59.27667746 232.38791309 59.27667746 232.38791309 56.43006516 231.52289867 C53.29829253 226.45030921 51.81661772 220.15190113 52.93006516 214.27289867 C54.29406587 209.85529636 56.62880932 208.05706923 60.43006516 205.52289867 C67.08800367 202.29653464 75.22803069 202.21922039 82.25037766 204.39789867 C87.48517365 206.89222153 91.97715987 210.27334095 96.42225266 213.97211742 C100.31524925 216.97896499 103.32388171 217.97957825 108.33631516 217.83930492 C112.95668771 217.14107698 116.27488118 214.82713865 119.36756516 211.33539867 C121.43140686 205.87228828 121.20537445 201.29060386 118.86756516 195.96039867 C118.08964303 194.79081437 117.27407078 193.64572759 116.43006516 192.52289867 C115.95569016 191.87450024 115.48131516 191.2261018 114.99256516 190.55805492 C105.62316177 178.82377809 92.18271557 173.71668538 77.72694016 171.81977367 C58.51250179 170.08956358 39.80383019 176.05301323 26.40662766 190.08930492 Z M165.59022141 188.24164867 C156.9631326 197.54924575 153.91625047 209.12887094 154.18397141 221.53852367 C155.07928244 232.3959464 160.42140012 241.42847091 168.32459641 248.79242992 C177.94458615 256.69902632 188.93904203 261.00467009 200.43299484 265.49067211 C223.89439341 274.6729898 223.89439341 274.6729898 229.43006516 283.52289867 C231.20333455 288.94825862 231.18267487 294.42633511 229.05506516 299.71039867 C226.30997287 304.70863122 221.62446682 306.65803644 216.43006516 308.52289867 C206.79438242 310.87159634 197.32123647 309.98037093 188.43006516 305.52289867 C184.80598125 302.79448122 181.6202841 299.74100415 178.43006516 296.52289867 C173.60745478 291.7306829 169.46253755 288.70414796 162.43006516 288.52289867 C157.62553846 289.27838079 155.0701262 290.73513123 151.99256516 294.52289867 C149.71971561 298.88676981 148.5383444 302.64415721 149.43006516 307.52289867 C154.628481 321.20587182 163.50991526 328.72119138 176.48865891 335.00336742 C195.05270912 343.06749625 214.80849025 343.39577781 233.71058273 336.04584789 C247.16853599 330.47692528 256.76150542 322.49627853 263.43006516 309.52289867 C263.77295578 308.86032055 264.11584641 308.19774242 264.46912766 307.51508617 C268.25767713 298.48630005 267.86020686 285.75723112 264.99256516 276.52289867 C262.36610952 270.49314841 258.15511899 266.00821982 253.43006516 261.52289867 C252.79713547 260.91961742 252.16420578 260.31633617 251.51209641 259.69477367 C240.95691476 250.67757259 227.26085049 245.00545496 214.36756516 240.27289867 C196.10329303 233.56303377 196.10329303 233.56303377 191.80506516 227.21039867 C189.90750064 222.12147566 189.28419509 217.69702004 191.16053391 212.49946117 C193.19682027 208.55987042 195.41660448 206.32895598 199.43006516 204.52289867 C206.42150678 202.32647232 215.63265247 202.30749631 222.39490891 205.26508617 C226.17807864 207.60324482 229.48700649 210.52966752 232.81678391 213.46430492 C237.13793259 216.86825912 240.89684415 217.9895781 246.43787766 217.84321117 C250.58218212 217.17687202 253.27071795 214.6022909 256.24256516 211.83539867 C258.41399724 207.6068204 259.06639124 203.16570459 257.94569016 198.51117992 C253.23875327 187.56533141 242.14581995 179.65553541 231.43787766 175.30805492 C208.52990597 167.43869057 183.39740635 171.60648651 165.59022141 188.24164867 Z " fill="#000000" transform="translate(116.5699348449707,-0.5228986740112305)"/>
</svg>
